<?xml version="1.0" encoding="utf-8"?>
<!-- Generator: Adobe Illustrator 23.0.1, SVG Export Plug-In . SVG Version: 6.00 Build 0)  -->
<svg version="1.1" id="Layer_1" xmlns="http://www.w3.org/2000/svg" xmlns:xlink="http://www.w3.org/1999/xlink" x="0px" y="0px"
	 width="42px" height="42px" viewBox="0 0 42 42" style="enable-background:new 0 0 42 42;" xml:space="preserve">
<style type="text/css">
	.st0{fill:#515050;}
</style>
<path id="XMLID_147_" class="st0" d="M8.3332,19.1729c2.2539,8.2355,9.4492,14.3038,17.9448,14.9974c0.1734,0,0.3468,0,0.6068,0
	c0.7802,0,1.5604-0.1734,2.2539-0.4334c0.1734-0.0867,0.3468-0.1734,0.5201-0.2601c0.3468-0.1734,0.6935-0.5201,0.9536-0.7802
	l0.7802-0.8669c0.1734-0.1734,0.2601-0.3468,0.4335-0.6068c0.2601-0.3468,0.4335-0.7802,0.5201-1.2137
	c0.3468-1.4737-0.0867-2.9475-1.2137-3.9877l0,0l-1.3004-1.2137c-0.5201-0.5201-1.2137-0.7802-1.9072-0.9536
	c-0.2601-0.0867-0.6068-0.0867-0.8669-0.0867c-1.127,0-2.2539,0.5201-3.0341,1.3003l-0.7802,0.8669
	c-0.3468,0.3468-0.5201,0.6935-0.6935,1.127c-3.1208-1.3003-5.7215-3.641-7.282-6.6751c0.6068-0.2601,1.127-0.6068,1.5604-1.0403
	l0.7802-0.8669c0.6935-0.7802,1.127-1.8205,1.0403-2.9475c0-0.0867,0-0.1734,0-0.3468c-0.0867-0.9536-0.6068-1.8205-1.3003-2.514
	l-1.3003-1.2137c-0.8669-0.4334-1.8205-0.8669-2.8608-0.8669c-0.2601,0-0.4334,0-0.6935,0.0867
	c-0.6935,0.1734-1.387,0.4334-1.9072,0.9536c-0.1734,0.0867-0.2601,0.2601-0.3468,0.3468l-0.7802,0.8669
	c-0.0867,0.0867-0.1734,0.2601-0.3468,0.3468c-0.8669,0.7802-1.5604,2.4273-1.127,4.5079
	C8.0731,18.1326,8.1598,18.6527,8.3332,19.1729z M9.8069,13.9715C9.8069,13.8848,9.8069,13.8848,9.8069,13.9715L9.8069,13.9715
	c0.0867-0.0867,0.0867-0.0867,0.0867-0.1734c0.0867-0.0867,0.1734-0.1734,0.2601-0.3468l0.7802-0.8669
	c0.0867-0.0867,0.1734-0.1734,0.2601-0.2601c0.4334-0.3468,0.9536-0.6068,1.4737-0.6935c0.1734,0,0.3468-0.0867,0.5201-0.0867
	c0.7802,0,1.4737,0.2601,2.0806,0.7802l1.3003,1.2137c0.5201,0.5201,0.8669,1.127,0.9536,1.9072c0,0.0867,0,0.1734,0,0.2601
	c0,0.8669-0.2601,1.6471-0.7802,2.2539l-0.7802,0.8669c-0.3468,0.4334-0.8669,0.6935-1.387,0.8669l-0.2601,0.0867
	c-0.1734,0-0.2601,0.1734-0.3468,0.2601c-0.0867,0.1734-0.0867,0.2601,0,0.4334l0.0867,0.2601
	c1.7338,3.4676,4.6813,6.155,8.2355,7.542l0.1734,0.0867c0.0867,0.0867,0.2601,0,0.3468,0
	c0.0867-0.0867,0.1734-0.1734,0.2601-0.2601l0.0867-0.1734c0.1734-0.4335,0.3468-0.7802,0.6068-1.127l0.7802-0.8669
	c0.6068-0.6068,1.387-1.0403,2.2539-1.0403c0.1734,0,0.4335,0,0.6068,0.0867c0.5201,0.0867,1.0403,0.3468,1.387,0.6935
	l1.3003,1.2137c0.8669,0.7802,1.2137,1.9072,0.9536,3.0341c-0.0867,0.3468-0.1734,0.6068-0.3468,0.8669
	c-0.0867,0.1734-0.2601,0.3468-0.3468,0.4335l-0.7802,0.8669c-0.1734,0.2601-0.4334,0.4334-0.7802,0.6068
	c-0.0867,0.0867-0.2601,0.1734-0.4335,0.1734c-0.6935,0.3468-1.4737,0.4334-2.3406,0.3468
	c-7.7154-0.6935-14.5639-6.4151-16.7312-14.3038c-0.1734-0.5201-0.2601-0.9536-0.3468-1.387
	C8.5932,15.7053,9.2867,14.4049,9.8069,13.9715z"/>
<path class="st0" d="M21.5967,7.7298c-0.6068,0-1.0403,0.5201-1.0403,1.0403c0,0.6068,0.5201,1.0403,1.0403,1.0403
	c5.7215,0,10.3161,4.6813,10.3161,10.3161c0,0.6068,0.5201,1.0403,1.0403,1.0403c0.6068,0,1.0403-0.5201,1.0403-1.0403
	C34.0801,13.3646,28.5319,7.7298,21.5967,7.7298z"/>
<path class="st0" d="M21.51,11.8042c-0.6068,0-1.0403,0.5201-1.0403,1.0403c0,0.6068,0.5201,1.0403,1.0403,1.0403
	c3.5543,0,6.4151,2.8608,6.4151,6.4151c0,0.6068,0.5201,1.0403,1.0403,1.0403c0.6068,0,1.0403-0.5201,1.0403-1.0403
	C30.0056,15.7053,26.1913,11.8042,21.51,11.8042z"/>
</svg>
