<?xml version="1.0" encoding="utf-8"?>
<!-- Generator: Adobe Illustrator 23.0.1, SVG Export Plug-In . SVG Version: 6.00 Build 0)  -->
<svg version="1.1" id="Layer_1" xmlns="http://www.w3.org/2000/svg" xmlns:xlink="http://www.w3.org/1999/xlink" x="0px" y="0px"
	 width="42px" height="42px" viewBox="0 0 42 42" style="enable-background:new 0 0 42 42;" xml:space="preserve">
<style type="text/css">
	.st0{fill:#515050;}
</style>
<path id="XMLID_11037_" class="st0" d="M31.9143,7.4409H10.0857c-2.2295,0-4.043,1.8134-4.043,4.0429v13.9883
	c0,2.229,1.8135,4.0425,4.043,4.0425H24.283l7.3193,4.9116c0.1314,0.0884,0.2827,0.1328,0.4351,0.1328
	c0.126,0,0.2519-0.0303,0.3672-0.0918c0.2544-0.1357,0.413-0.4004,0.413-0.6885v-4.6523c1.4224-0.6025,3.1397-1.9072,3.1397-3.6543
	V11.4838C35.9573,9.2543,34.1438,7.4409,31.9143,7.4409z M34.3968,25.4722c0,0.915-1.3667,1.9824-2.5933,2.3677
	c-0.3252,0.102-0.5469,0.4038-0.5469,0.7446v3.7305l-6.3013-4.2285c-0.1284-0.087-0.2797-0.1329-0.4345-0.1329H10.0857
	c-1.3686,0-2.4819-1.1132-2.4819-2.4814V11.4838c0-1.3686,1.1133-2.4824,2.4819-2.4824h21.8286
	c1.3692,0,2.4825,1.1138,2.4825,2.4824V25.4722z"/>
<path id="XMLID_11035_" class="st0" d="M30.1819,14.6416H11.7708c-0.2925,0-0.5308-0.448-0.5308-0.9999
	c0-0.552,0.2383-1.0001,0.5308-1.0001h18.4111c0.2925,0,0.5308,0.448,0.5308,1.0001
	C30.7127,14.1935,30.4744,14.6416,30.1819,14.6416z"/>
<path id="XMLID_11032_" class="st0" d="M30.1819,18.9449H11.7708c-0.2925,0-0.5308-0.4473-0.5308-0.9995
	c0-0.5523,0.2383-1.0005,0.5308-1.0005h18.4111c0.2925,0,0.5308,0.4482,0.5308,1.0005
	C30.7127,18.4976,30.4744,18.9449,30.1819,18.9449z"/>
<path id="XMLID_11029_" class="st0" d="M30.1819,23.1005H11.7708c-0.2925,0-0.5308-0.4483-0.5308-1.0004
	c0-0.5523,0.2383-0.9996,0.5308-0.9996h18.4111c0.2925,0,0.5308,0.4473,0.5308,0.9996
	C30.7127,22.6523,30.4744,23.1005,30.1819,23.1005z"/>
</svg>
