<?xml version="1.0" encoding="utf-8"?>
<!-- Generator: Adobe Illustrator 23.0.1, SVG Export Plug-In . SVG Version: 6.00 Build 0)  -->
<svg version="1.1" id="Layer_1" xmlns="http://www.w3.org/2000/svg" xmlns:xlink="http://www.w3.org/1999/xlink" x="0px" y="0px"
	 width="42px" height="42px" viewBox="0 0 42 42" style="enable-background:new 0 0 42 42;" xml:space="preserve">
<style type="text/css">
	.st0{fill:#515050;}
</style>
<path id="XMLID_160_" class="st0" d="M17.0723,32.8709c0,2.166,1.7615,3.9279,3.928,3.9279c2.166,0,3.9274-1.7619,3.9274-3.9279
	c0-2.1656-1.7614-3.928-3.9274-3.928C18.8338,28.943,17.0723,30.7054,17.0723,32.8709z M21.0003,35.6557
	c-1.5357,0-2.7852-1.2491-2.7852-2.7848c0-1.5348,1.2495-2.7848,2.7852-2.7848c1.5356,0,2.7848,1.25,2.7848,2.7848
	C23.785,34.4066,22.5359,35.6557,21.0003,35.6557z"/>
<path class="st0" d="M5.7048,15.0706c0.4587-0.0049,0.887-0.1882,1.2079-0.515c3.7428-3.8207,8.746-5.9245,14.0875-5.9245
	c5.3411,0,10.3446,2.1038,14.0875,5.9241c0.325,0.3322,0.76,0.515,1.225,0.515c0.4516,0,0.8776-0.1739,1.1999-0.49
	c0.3273-0.3205,0.5106-0.7492,0.515-1.2075c0.0049-0.4583-0.1694-0.8906-0.4895-1.2178
	c-4.3942-4.4841-10.2673-6.9536-16.5379-6.9536c-6.2711,0-12.1441,2.4695-16.5374,6.9536c-0.321,0.3272-0.4954,0.7596-0.4905,1.2178
	c0.0045,0.4583,0.1878,0.8869,0.515,1.2075c0.3224,0.3165,0.7479,0.4905,1.1995,0.4905C5.6927,15.0706,5.699,15.0706,5.7048,15.0706
	z"/>
<path class="st0" d="M33.1743,18.2666c-3.2265-3.3208-7.55-5.1497-12.1741-5.1497c-4.6245,0-8.9476,1.8289-12.1745,5.1497
	c-0.6589,0.6782-0.6429,1.7659,0.0353,2.4248c0.6773,0.659,1.765,0.6434,2.4244-0.0348c2.5756-2.6503,6.0251-4.1099,9.7148-4.1099
	c3.6892,0,7.1391,1.4596,9.7142,4.1099c0.3255,0.3353,0.7623,0.5199,1.2299,0.5199c0.4488,0,0.8731-0.1721,1.195-0.4851
	C33.8176,20.0325,33.8333,18.9448,33.1743,18.2666z"/>
<path class="st0" d="M27.9392,27.9228c0.4435,0,0.8641-0.1686,1.1851-0.4748c0.3313-0.3165,0.519-0.743,0.5293-1.2008
	c0.0108-0.4583-0.1578-0.8928-0.4747-1.2241c-2.1562-2.2577-5.0617-3.5009-8.1786-3.5009c-3.1174,0-6.022,1.2433-8.1791,3.5009
	c-0.317,0.3313-0.4851,0.7658-0.4748,1.2241c0.0107,0.4578,0.199,0.8843,0.5302,1.2008c0.321,0.3072,0.7403,0.4748,1.1829,0.4748
	c0.0135,0,0.0268,0,0.0402-0.0005c0.4587-0.0103,0.8848-0.1985,1.2009-0.5298c1.5039-1.5737,3.5282-2.4405,5.6996-2.4405
	c2.1718,0,4.1952,0.8668,5.6987,2.4405C27.0209,27.7293,27.4729,27.9228,27.9392,27.9228z"/>
</svg>
